# xmcd CD database file generated by OrangeCD 5.2
#
# Track frame offsets:
#	150
#	13643
#	28493
#	46252
#	58968
#	70883
#	85278
#	99291
#	117163
#	131523
#	142698
#	158108
#	171803
#	185744
#
# Disc length: 2661 seconds
#
# Revision: 0
# Processed by: cddbd v1.5.1PL0 Copyright (c) Steve Scherf et al.
# Submitted via: OrangeCD 5.2
#
DISCID=bd0a630e
DTITLE=Dænsebændet - Gøy på landet
DYEAR=2000
DGENRE=Country
TTITLE0=I mitt slager-atelier
TTITLE1=Ei boble fra ' 64
TTITLE2=Nøkkelen
TTITLE3=Du er det bæste som har hendt meg
TTITLE4=Hauger'n
TTITLE5=Ei natt på stranda
TTITLE6=Snertingdalens vakreste rose
TTITLE7=Helgepappa
TTITLE8=21 dager
TTITLE9=Hembrent og Villa-Farris
TTITLE10=Vil du gifte deg med meg
TTITLE11=Inni meg så er je den såmmå
TTITLE12=Per og'n Pål og'n Severin
TTITLE13=Jinta som ga meg spellmænnsro
EXTD=
EXTT0=
EXTT1=
EXTT2=
EXTT3=
EXTT4=
EXTT5=
EXTT6=
EXTT7=
EXTT8=
EXTT9=
EXTT10=
EXTT11=
EXTT12=
EXTT13=
PLAYORDER=
